<?xml version="1.0" encoding="UTF-8" standalone="no"?>
<!-- Created with Inkscape (http://www.inkscape.org/) -->

<svg
   width="210mm"
   height="297mm"
   viewBox="0 0 210 297"
   version="1.1"
   id="svg5"
   xml:space="preserve"
   inkscape:version="1.2 (dc2aedaf03, 2022-05-15)"
   sodipodi:docname="132_nue.svg"
   inkscape:export-filename="132_nue.png"
   inkscape:export-xdpi="96"
   inkscape:export-ydpi="96"
   xmlns:inkscape="http://www.inkscape.org/namespaces/inkscape"
   xmlns:sodipodi="http://sodipodi.sourceforge.net/DTD/sodipodi-0.dtd"
   xmlns="http://www.w3.org/2000/svg"
   xmlns:svg="http://www.w3.org/2000/svg"><sodipodi:namedview
     id="namedview7"
     pagecolor="#505050"
     bordercolor="#eeeeee"
     borderopacity="1"
     inkscape:showpageshadow="0"
     inkscape:pageopacity="0"
     inkscape:pagecheckerboard="0"
     inkscape:deskcolor="#505050"
     inkscape:document-units="mm"
     showgrid="false"
     inkscape:zoom="2.8284271"
     inkscape:cx="365.57421"
     inkscape:cy="569.22096"
     inkscape:window-width="3840"
     inkscape:window-height="2054"
     inkscape:window-x="-11"
     inkscape:window-y="-11"
     inkscape:window-maximized="1"
     inkscape:current-layer="layer1" /><defs
     id="defs2" /><g
     inkscape:label="Layer 1"
     inkscape:groupmode="layer"
     id="layer1"><rect
       style="opacity:1;fill:#000000;stroke-width:0.264583"
       id="rect345"
       width="84.433998"
       height="126.60313"
       x="35.189583"
       y="88.370834" /><circle
       style="opacity:1;fill:#000000;stroke-width:0.243198"
       id="path555"
       cx="77.420624"
       cy="155.3103"
       r="38.36459" /><path
       d="m 97.343069,187.45351 0.56744,0.55748 3.414601,-3.4146 3.41463,3.4146 0.56744,-0.55748 -3.98207,-3.98204 z"
       id="path4867"
       style="fill:#bfbfbf;stroke-width:0.199102;fill-opacity:1" /><path
       d="m 58.678881,184.02895 -0.56744,-0.55748 -3.4146,3.4146 -3.4146,-3.4146 -0.56744,0.55748 3.98204,3.98204 z"
       id="path4867-7"
       style="fill:#bfbfbf;stroke-width:0.199102;fill-opacity:1" /><path
       d="M 52.652089,107.64583 50.800006,105 l -1.852084,2.64583 h 0.492125 l -1.021291,1.5875 h 1.852083 v 1.05834 h 1.058333 v -1.05834 h 1.852084 l -1.021292,-1.5875 h 0.492125 m 1.095375,0 h 0.492125 L 52.387506,105 l -0.632355,0.90223 1.404938,2.00819 h -0.515938 l 0.851959,1.32291 h 1.272646 l -1.021292,-1.5875 m -1.889125,1.85209 h 1.058333 v 0.79375 h -1.058333 z"
       id="path5127"
       style="fill:#bfbfbf;fill-opacity:1;stroke-width:0.264583" /><path
       d="m 79.179144,175.89708 -0.559177,0.55917 c 0.667158,0.40492 1.1145,1.13379 1.1145,1.97062 a 2.3138437,2.3138437 0 0 1 -2.313844,2.31384 2.3138437,2.3138437 0 0 1 -2.313844,-2.31384 c 0,-0.83683 0.447344,-1.5657 1.110645,-1.97447 l -0.555322,-0.55532 c -0.802132,0.55532 -1.326603,1.48086 -1.326603,2.52979 a 3.085125,3.085125 0 0 0 3.085124,3.08513 3.085125,3.085125 0 0 0 3.085125,-3.08513 c 0,-1.04893 -0.52447,-1.97447 -1.326604,-2.52979 m -1.372879,-0.94098 h -0.771282 v 3.85642 h 0.771282"
       id="path5138"
       style="fill:#bfbfbf;fill-opacity:1;stroke-width:0.38564" /><path
       d="m 105.34601,105.54595 c -0.34628,0 -0.62394,0.27765 -0.62394,0.62395 v 2.10892 c -0.19966,0.17783 -0.31197,0.43364 -0.31197,0.69882 0,0.51787 0.41804,0.93591 0.93591,0.93591 0.51788,0 0.93592,-0.41804 0.93592,-0.93591 0,-0.26518 -0.11231,-0.52099 -0.31197,-0.6957 v -2.11204 c 0,-0.3463 -0.27766,-0.62395 -0.62395,-0.62395 m 0,0.31198 c 0.17159,0 0.31197,0.14038 0.31197,0.31197 v 0.31196 h -0.62394 v -0.31196 c 0,-0.17159 0.14039,-0.31197 0.31197,-0.31197 m -3.43168,4.36759 c -1.03263,0 -1.87183,-0.8392 -1.87183,-1.87183 0,-1.24788 1.87183,-3.35369 1.87183,-3.35369 0,0 1.87183,2.10581 1.87183,3.35369 0,1.03263 -0.83921,1.87183 -1.87183,1.87183 z"
       id="path5149"
       style="fill:#bfbfbf;fill-opacity:1;stroke-width:0.311971" /></g></svg>
